<?xml version="1.0" encoding="UTF-8"?>
<svg version="1.1" xmlns="http://www.w3.org/2000/svg" width="457" height="75">
<path d="M0 0 C0 1.65 0 3.3 0 5 C0.99 5.33 1.98 5.66 3 6 C3.02526945 12.6752034 3.04283268 19.35039457 3.05493164 26.02563477 C3.05997325 28.29842591 3.06680637 30.5712138 3.07543945 32.84399414 C3.08751261 36.10303551 3.09322987 39.36203417 3.09765625 42.62109375 C3.10281754 43.64400009 3.10797882 44.66690643 3.11329651 45.72080994 C3.11337204 46.66170975 3.11344757 47.60260956 3.11352539 48.57202148 C3.115746 49.40475082 3.11796661 50.23748016 3.12025452 51.09544373 C3 53 3 53 2 54 C-0.25663968 54.07568807 -2.51562244 54.08305414 -4.7734375 54.0625 C-5.45298492 54.05871338 -6.13253235 54.05492676 -6.83267212 54.05102539 C-9.74984978 54.03462806 -12.66688944 54.00657397 -15.58398438 53.97949219 C-17.70962884 53.96141374 -19.83525046 53.94931164 -21.9609375 53.9375 C-23.23759277 53.92589844 -24.51424805 53.91429687 -25.82958984 53.90234375 C-29.02527282 53.84905206 -29.02527282 53.84905206 -32 55 C-38.54098361 55.2295082 -38.54098361 55.2295082 -41 54 C-43.48099734 53.91350549 -45.93344928 53.88434946 -48.4140625 53.90234375 C-49.50852188 53.90446617 -49.50852188 53.90446617 -50.62509155 53.90663147 C-52.95843585 53.91223469 -55.29168464 53.92478765 -57.625 53.9375 C-59.20572778 53.94251459 -60.78645707 53.94707757 -62.3671875 53.95117188 C-66.24482854 53.96220516 -70.12239807 53.97947189 -74 54 C-74.07588365 47.20075608 -74.12852926 40.40162078 -74.16479492 33.60205078 C-74.17990853 31.28755615 -74.20039996 28.97309026 -74.22631836 26.65869141 C-74.26258841 23.33749304 -74.27970044 20.01667232 -74.29296875 16.6953125 C-74.30845261 15.65569366 -74.32393646 14.61607483 -74.33988953 13.54495239 C-74.34022942 12.10368484 -74.34022942 12.10368484 -74.34057617 10.63330078 C-74.34723801 9.78502716 -74.35389984 8.93675354 -74.36076355 8.06277466 C-74.24171158 7.38205902 -74.12265961 6.70134338 -74 6 C-73.01 5.34 -72.02 4.68 -71 4 C-70.5359375 2.7315625 -70.5359375 2.7315625 -70.0625 1.4375 C-69.711875 0.633125 -69.36125 -0.17125 -69 -1 C-61.2493559 -3.72111493 -49.01487074 -3.47892265 -41.625 -0.0625 C-40.99851562 0.29714844 -40.37203125 0.65679687 -39.7265625 1.02734375 C-37.73224817 2.15083757 -36.28577831 2.75417101 -34 3 C-31.62728524 2.06416022 -31.62728524 2.06416022 -29.25 0.625 C-20.0680194 -4.20056645 -9.54965514 -4.21561353 0 0 Z M-67 2 C-67 16.19 -67 30.38 -67 45 C-61.72 45 -56.44 45 -51 45 C-44.1875 46.5 -44.1875 46.5 -41.35546875 47.34375 C-38.9258739 48.13419267 -38.9258739 48.13419267 -36 48 C-35.93696516 44.21090585 -35.94215009 40.42464509 -35.97900391 36.63525391 C-35.99462967 34.67403884 -36.00058046 32.71274196 -36.00146484 30.75146484 C-36.01193296 27.12501111 -36.06556599 23.50095604 -36.125 19.875 C-36.12234131 18.67705811 -36.11968262 17.47911621 -36.11694336 16.24487305 C-36.07696869 9.57476437 -36.07696869 9.57476437 -39.6796875 4.3203125 C-40.77539062 3.88460938 -41.87109375 3.44890625 -43 3 C-43.96679688 2.59136719 -44.93359375 2.18273437 -45.9296875 1.76171875 C-49.43057642 0.89317761 -52.52075961 0.76968505 -56.125 0.8125 C-57.32382812 0.81894531 -58.52265625 0.82539063 -59.7578125 0.83203125 C-63.16133023 0.90432001 -63.16133023 0.90432001 -67 2 Z M-33 7 C-33.15884272 8.83339628 -33.25138197 10.67260353 -33.31640625 12.51171875 C-33.35838135 13.65664795 -33.40035645 14.80157715 -33.44360352 15.98120117 C-33.48283936 17.20427979 -33.5220752 18.4273584 -33.5625 19.6875 C-33.6049585 20.91509033 -33.64741699 22.14268066 -33.69116211 23.4074707 C-33.96110288 31.60834737 -34.13650438 39.79457001 -34 48 C-33.18660156 47.7834375 -32.37320313 47.566875 -31.53515625 47.34375 C-21.33040508 44.8643054 -14.08348415 45 -3 45 C-3 31.14 -3 17.28 -3 3 C-12.05023874 -1.52511937 -25.55323696 -0.44676304 -33 7 Z " fill="#023168" transform="translate(330,12)"/>
<path d="M0 0 C7.77137096 5.4061711 13.2649257 13.38653909 15.6484375 22.5625 C15.96650837 25.46369189 16.02958468 28.33285727 16.0234375 31.25 C16.02102051 32.4404895 16.02102051 32.4404895 16.01855469 33.6550293 C15.83779762 42.36415292 13.85802157 50.13114507 7.6484375 56.5625 C6.3284375 56.2325 5.0084375 55.9025 3.6484375 55.5625 C2.96484375 53.89453125 2.96484375 53.89453125 2.6484375 51.5625 C3.86328125 49.07421875 3.86328125 49.07421875 5.5859375 46.25 C9.71016347 38.38609127 10.1313036 30.49396439 7.98046875 21.890625 C4.90810002 14.10907976 -1.0705086 7.59031705 -8.3515625 3.5625 C-16.14039179 0.51807885 -24.99325538 -0.15264205 -32.85546875 2.94140625 C-34.89050918 4.01760554 -36.89794689 5.14888384 -38.86328125 6.34765625 C-41.3515625 7.5625 -41.3515625 7.5625 -43.68359375 7.24609375 C-44.23402344 7.02050781 -44.78445313 6.79492188 -45.3515625 6.5625 C-45.6815625 5.2425 -46.0115625 3.9225 -46.3515625 2.5625 C-45.00594898 1.59219365 -43.64952656 0.63687225 -42.2890625 -0.3125 C-41.15791016 -1.11300781 -41.15791016 -1.11300781 -40.00390625 -1.9296875 C-27.95368844 -8.78003223 -11.40231526 -6.97018607 0 0 Z " fill="#606060" transform="translate(441.3515625,5.4375)"/>
<path d="M0 0 C1.65 1.65 3.3 3.3 5 5 C4.66226562 5.50789063 4.32453125 6.01578125 3.9765625 6.5390625 C-1.27905421 14.65033222 -2.95897342 21.2903941 -2 31 C0.10279208 40.10413388 4.16881581 46.62836839 11.9375 51.8125 C19.29563968 56.02506961 26.63614929 56.88320561 35 56 C40.39388672 54.48343628 45.33629453 52.10913698 50 49 C51.32 50.65 52.64 52.3 54 54 C43.24360632 61.85750744 34.45884161 64.25691176 21 63 C10.66646239 60.71655911 1.96763388 54.74780752 -4 46 C-9.21371974 36.17222157 -10.75479952 25.77261744 -8.28125 14.81640625 C-6.34090698 9.17532836 -3.71795918 4.64744898 0 0 Z " fill="#023168" transform="translate(391,12)"/>
<path d="M0 0 C18 0 18 0 24 3 C26.63479064 6.3533699 26.42669475 9.87528406 26 14 C24 17.4375 24 17.4375 22 20 C22.99 20.33 23.98 20.66 25 21 C27.52510323 24.45540442 27.36397339 27.85070338 27 32 C24.89739735 37.13969536 23.4357261 37.28213695 18 40 C12.06 40 6.12 40 0 40 C0 26.8 0 13.6 0 0 Z M6 5 C6 8.96 6 12.92 6 17 C12.85028837 17.4902778 12.85028837 17.4902778 19 15 C19.81870185 11.43793339 19.81870185 11.43793339 20 8 C16.85408067 5.19954377 14.932936 4.64738411 10.75 4.8125 C8.39875 4.9053125 8.39875 4.9053125 6 5 Z M6 22 C6 26.29 6 30.58 6 35 C8.35125 35.061875 8.35125 35.061875 10.75 35.125 C11.63171875 35.14820313 12.5134375 35.17140625 13.421875 35.1953125 C16.14906426 34.98870725 17.71315408 34.47305841 20 33 C21.41441874 30.17116253 21.31900332 28.12623255 21 25 C18.7408162 22.71423757 17.4197848 22.04397187 14.203125 21.70703125 C13.22859375 21.74183594 12.2540625 21.77664062 11.25 21.8125 C9.5175 21.874375 7.785 21.93625 6 22 Z " fill="#606060" transform="translate(224,15)"/>
<path d="M0 0 C1.2065625 0.0309375 1.2065625 0.0309375 2.4375 0.0625 C6.02405401 8.54858607 9.44120764 17.08954178 12.75 25.6875 C13.20439453 26.85667969 13.65878906 28.02585937 14.12695312 29.23046875 C14.55556641 30.34292969 14.98417969 31.45539062 15.42578125 32.6015625 C15.81290283 33.60396973 16.20002441 34.60637695 16.59887695 35.63916016 C17.4375 38.0625 17.4375 38.0625 17.4375 40.0625 C15.4575 40.0625 13.4775 40.0625 11.4375 40.0625 C8.4375 33.4375 8.4375 33.4375 8.4375 30.0625 C2.8275 30.0625 -2.7825 30.0625 -8.5625 30.0625 C-8.871875 31.526875 -9.18125 32.99125 -9.5 34.5 C-10.4375 38.9375 -10.4375 38.9375 -11.5625 40.0625 C-13.56208364 40.10330783 -15.56295254 40.10504356 -17.5625 40.0625 C-15.38705392 32.1959109 -12.60389544 24.5886403 -9.69140625 16.97290039 C-8.9275417 14.97394007 -8.17048269 12.97249078 -7.4140625 10.97070312 C-6.93008291 9.69776626 -6.44572243 8.42497413 -5.9609375 7.15234375 C-5.30617432 5.43325806 -5.30617432 5.43325806 -4.63818359 3.67944336 C-3.15741855 0.07701021 -3.15741855 0.07701021 0 0 Z M-0.5625 8.0625 C-1.40169398 10.33132087 -2.23401724 12.60227027 -3.0625 14.875 C-3.30097656 15.51759766 -3.53945312 16.16019531 -3.78515625 16.82226562 C-4.83318746 19.71183739 -5.5625 21.96326061 -5.5625 25.0625 C-1.9325 25.0625 1.6975 25.0625 5.4375 25.0625 C4.2290371 19.11314416 2.69172333 13.69805833 0.4375 8.0625 C0.1075 8.0625 -0.2225 8.0625 -0.5625 8.0625 Z " fill="#023168" transform="translate(17.5625,14.9375)"/>
<path d="M0 0 C1.98 0 3.96 0 6 0 C6.33 7.26 6.66 14.52 7 22 C9.0109375 19.525 9.0109375 19.525 11.0625 17 C15.32935531 12.20653912 15.32935531 12.20653912 18.15625 11.3359375 C20.0625 11.375 20.0625 11.375 23 12 C21.2431893 16.06652629 18.63709461 18.33202078 15.36328125 21.21875 C14.91339844 21.8065625 14.46351563 22.394375 14 23 C14.43115647 26.00841941 15.49499723 27.99820366 17.28515625 30.41796875 C17.73310547 31.03220703 18.18105469 31.64644531 18.64257812 32.27929688 C19.11115234 32.90900391 19.57972656 33.53871094 20.0625 34.1875 C25 40.88983629 25 40.88983629 25 42 C21.80859375 42.375 21.80859375 42.375 18 42 C15.93978155 39.96102091 14.59885619 38.37266833 13.0625 36 C12.66482422 35.42765625 12.26714844 34.8553125 11.85742188 34.265625 C10.88387842 32.8580923 9.93897788 31.43082343 9 30 C8.34 30.33 7.68 30.66 7 31 C6.5316735 33.58605332 6.5316735 33.58605332 6.375 36.5625 C6.30023438 37.57441406 6.22546875 38.58632813 6.1484375 39.62890625 C6.09945313 40.41136719 6.05046875 41.19382813 6 42 C4.02 42 2.04 42 0 42 C0 28.14 0 14.28 0 0 Z " fill="#606060" transform="translate(339,13)"/>
<path d="M0 0 C3.92909521 1.9645476 6.38990784 4.94227895 8 9 C8.67002222 14.59390643 8.75476125 19.46352174 6.25 24.5625 C1.47809099 29.7320681 1.47809099 29.7320681 -2.5859375 30.46875 C-11.04773868 30.5635601 -11.04773868 30.5635601 -14.5625 27.8125 C-18.8723366 22.83961161 -19.40319162 18.87721607 -19.25 12.43359375 C-18.7792217 7.85086123 -16.90386829 5.0733436 -14 1.625 C-9.41161117 -0.86037728 -5.09930215 -0.87480697 0 0 Z M-11.4375 6.875 C-13.65403218 11.30806436 -13.7734987 15.13572981 -13 20 C-11.66983836 23.22838773 -11.66983836 23.22838773 -9 25 C-5.5 25.83333333 -5.5 25.83333333 -2 25 C0.84142547 22.8142881 1.81568909 21.15906862 2.37890625 17.6171875 C2.57260706 13.43075071 2.32855364 10.65710727 0.4375 6.875 C-1.96512137 4.72880862 -1.96512137 4.72880862 -5.5 4.375 C-9.03487863 4.72880862 -9.03487863 4.72880862 -11.4375 6.875 Z " fill="#023168" transform="translate(114,25)"/>
<path d="M0 0 C3 0 6 0 9 0 C9.77214844 -0.04640625 10.54429687 -0.0928125 11.33984375 -0.140625 C18.38198013 -0.43713601 18.38198013 -0.43713601 21.5625 1.8125 C23.90222542 5.37295173 24.12061377 8.16890791 24.09765625 12.32421875 C24.09443359 13.35224609 24.09121094 14.38027344 24.08789062 15.43945312 C24.07951172 16.51130859 24.07113281 17.58316406 24.0625 18.6875 C24.05798828 19.77095703 24.05347656 20.85441406 24.04882812 21.97070312 C24.03703743 24.64719085 24.02058063 27.32356777 24 30 C22.02 30 20.04 30 18 30 C17.97494385 29.34402832 17.9498877 28.68805664 17.92407227 28.01220703 C17.8082674 25.04959817 17.68547114 22.08731969 17.5625 19.125 C17.52318359 18.09246094 17.48386719 17.05992188 17.44335938 15.99609375 C17.40146484 15.00996094 17.35957031 14.02382813 17.31640625 13.0078125 C17.27974854 12.09660645 17.24309082 11.18540039 17.20532227 10.24658203 C17.13422935 7.96516519 17.13422935 7.96516519 16 6 C12.58343976 5.83322718 12.58343976 5.83322718 9 6 C6.47871644 8.52128356 6.70646931 9.51239013 6.5859375 13.0078125 C6.54726562 13.99394531 6.50859375 14.98007812 6.46875 15.99609375 C6.4378125 17.02863281 6.406875 18.06117187 6.375 19.125 C6.33632812 20.16527344 6.29765625 21.20554687 6.2578125 22.27734375 C6.16335234 24.85138311 6.07778786 27.42541155 6 30 C4.02 30 2.04 30 0 30 C0 20.1 0 10.2 0 0 Z " fill="#023168" transform="translate(158,25)"/>
<path d="M0 0 C1.98 0 3.96 0 6 0 C6.02505615 0.62044189 6.0501123 1.24088379 6.07592773 1.88012695 C6.19196721 4.69112397 6.31465759 7.50179241 6.4375 10.3125 C6.47681641 11.28896484 6.51613281 12.26542969 6.55664062 13.27148438 C6.59853516 14.20927734 6.64042969 15.14707031 6.68359375 16.11328125 C6.72025146 16.97735596 6.75690918 17.84143066 6.79467773 18.73168945 C6.92747354 21.1647826 6.92747354 21.1647826 8 24 C12.65052872 24.26932521 12.65052872 24.26932521 17 23 C17.33 15.41 17.66 7.82 18 0 C19.98 0 21.96 0 24 0 C24 9.9 24 19.8 24 30 C21.33333333 30 18.66666667 30 16 30 C15.15566406 30.05800781 14.31132812 30.11601563 13.44140625 30.17578125 C5.65468549 30.54557125 5.65468549 30.54557125 2.375 27.8125 C0.3248023 23.61891381 -0.12753426 19.76781047 -0.09765625 15.13671875 C-0.09443359 14.25048828 -0.09121094 13.36425781 -0.08789062 12.45117188 C-0.07951172 11.53916016 -0.07113281 10.62714844 -0.0625 9.6875 C-0.05798828 8.75615234 -0.05347656 7.82480469 -0.04882812 6.86523438 C-0.03709234 4.57675627 -0.02067363 2.28841192 0 0 Z " fill="#023168" transform="translate(127,25)"/>
<path d="M0 0 C3.63104686 1.88814437 4.63918826 2.98521699 6 6.8125 C6 15.67702221 -0.1967117 20.97647305 -6 27 C-6.66 27.66 -7.32 28.32 -8 29 C-3.05 29.33 1.9 29.66 7 30 C7 31.65 7 33.3 7 35 C-0.59 35 -8.18 35 -16 35 C-16 29.3768555 -16 29.3768555 -13.2265625 26.5546875 C-12.6490625 25.95269531 -12.0715625 25.35070312 -11.4765625 24.73046875 C-10.86554688 24.11816406 -10.25453125 23.50585938 -9.625 22.875 C-8.42805946 21.64481111 -7.23268432 20.41309672 -6.0390625 19.1796875 C-5.23782959 18.37120361 -5.23782959 18.37120361 -4.42041016 17.54638672 C-2.07938924 14.99774002 -1.03434397 13.42071369 -0.75 9.9375 C-0.69253586 6.87773264 -0.69253586 6.87773264 -3 5 C-6.00293071 4.93051435 -6.00293071 4.93051435 -9 6 C-10.01187895 7.65948148 -11.0126546 9.32580562 -12 11 C-14.6875 11.3125 -14.6875 11.3125 -17 11 C-16.74560763 7.35370935 -16.13553242 5.20781637 -14.125 2.125 C-9.52904875 -1.00024685 -5.39865588 -0.86735162 0 0 Z " fill="#606060" transform="translate(411,18)"/>
<path d="M0 0 C0 7.59 0 15.18 0 23 C1.65 23 3.3 23 5 23 C5 24.32 5 25.64 5 27 C3.35 27 1.7 27 0 27 C0 29.64 0 32.28 0 35 C-1.65 35 -3.3 35 -5 35 C-5 32.36 -5 29.72 -5 27 C-10.28 27 -15.56 27 -21 27 C-19.71566789 20.57833944 -16.76055977 16.18119768 -13.3125 10.6875 C-12.69955078 9.66076172 -12.08660156 8.63402344 -11.45507812 7.57617188 C-10.84728516 6.60615234 -10.23949219 5.63613281 -9.61328125 4.63671875 C-9.06454346 3.74686279 -8.51580566 2.85700684 -7.95043945 1.94018555 C-6 0 -6 0 0 0 Z M-6 9 C-7.39530529 10.92923818 -8.7412589 12.89430347 -10.0625 14.875 C-10.79597656 15.96554688 -11.52945312 17.05609375 -12.28515625 18.1796875 C-14.17317797 20.73469411 -14.17317797 20.73469411 -14 23 C-11.03 23 -8.06 23 -5 23 C-5 18.38 -5 13.76 -5 9 C-5.33 9 -5.66 9 -6 9 Z " fill="#606060" transform="translate(441,18)"/>
<path d="M0 0 C4.09250866 2.08801462 4.79027632 3.4007895 6.3125 7.75 C6.539375 8.8225 6.76625 9.895 7 11 C4.1875 11.3125 4.1875 11.3125 1 11 C0.525625 10.175 0.05125 9.35 -0.4375 8.5 C-0.953125 7.675 -1.46875 6.85 -2 6 C-5.5 5.16666667 -5.5 5.16666667 -9 6 C-11.67335724 8.75959457 -12.19880826 11.27883049 -12.375 15 C-12.19880826 18.72116951 -11.67335724 21.24040543 -9 24 C-5.5 24.75 -5.5 24.75 -2 24 C-0.9739266 22.68662604 0.02727325 21.35335895 1 20 C4.1875 19.75 4.1875 19.75 7 20 C4.1388535 27.58203822 4.1388535 27.58203822 0 30 C-4.3363101 30.78603808 -8.91707531 30.96134985 -12.98046875 29.0859375 C-16.60570996 26.31106152 -18.13849711 23.39366473 -19 19 C-19.55014768 12.06813925 -18.55435126 7.1131156 -14 1.5625 C-9.40223892 -0.83216723 -5.07433075 -0.74016554 0 0 Z " fill="#023168" transform="translate(85,25)"/>
<path d="M0 0 C2.93210987 1.32143443 3.86720558 2.41819623 6 5 C6.875 8.3125 6.875 8.3125 7 11 C4.1875 11.3125 4.1875 11.3125 1 11 C0.525625 10.175 0.05125 9.35 -0.4375 8.5 C-0.953125 7.675 -1.46875 6.85 -2 6 C-5.62599422 5.58274322 -5.62599422 5.58274322 -9 6 C-11.96681758 10.62823543 -12.19975858 13.69786373 -11.51953125 18.94921875 C-11.0480115 21.28914722 -11.0480115 21.28914722 -9 24 C-6.79274927 24.36362818 -6.79274927 24.36362818 -4.375 24.1875 C-3.55773438 24.16042969 -2.74046875 24.13335937 -1.8984375 24.10546875 C-0.95871094 24.05326172 -0.95871094 24.05326172 0 24 C0.33 22.68 0.66 21.36 1 20 C2.98 20 4.96 20 7 20 C6.79396857 23.60555003 5.98789733 25.01433211 3.625 27.8125 C-0.11706216 30.67567589 -3.86088227 30.64341932 -8.4375 30.42578125 C-11.94093623 29.84365541 -13.69367174 28.67831669 -16 26 C-19.40003501 20.70030131 -18.58051394 14.02895199 -18 8 C-14.96210081 -0.35048152 -7.85519114 -1.08695227 0 0 Z " fill="#023168" transform="translate(56,25)"/>
<path d="M0 0 C1.98 0 3.96 0 6 0 C6 2.31 6 4.62 6 7 C7.65 7 9.3 7 11 7 C11 8.65 11 10.3 11 12 C9.35 12 7.7 12 6 12 C6.33 18.27 6.66 24.54 7 31 C8.32 31.33 9.64 31.66 11 32 C11 33.65 11 35.3 11 37 C5.04296875 37.390625 5.04296875 37.390625 3 37 C0.21095481 34.03156234 -0.36661438 32.04158617 -0.29296875 28.015625 C-0.28330078 27.08105469 -0.27363281 26.14648438 -0.26367188 25.18359375 C-0.23853516 24.21550781 -0.21339844 23.24742188 -0.1875 22.25 C-0.17396484 21.26644531 -0.16042969 20.28289063 -0.14648438 19.26953125 C-0.11118726 16.84579585 -0.06188054 14.42317855 0 12 C-1.65 12 -3.3 12 -5 12 C-5 10.35 -5 8.7 -5 7 C-3.35 7 -1.7 7 0 7 C0 4.69 0 2.38 0 0 Z " fill="#023168" transform="translate(190,18)"/>
</svg>
